{"title":"Vanishing.on.7th.Street.2010.R5.DVDRip.XVID.AC3.HQ.Hive-CM8","uid":6246164,"size":1620030705,"categoryP":"video","categoryS":"movies","magnet":"?xt=urn:btih:1318938eb2d34b8ecbb8ca60e145faf21a65adc1&amp;dn=Vanishing.on.7th.Street.2010.R5.DVDRip.XVID.AC3.HQ.Hive-CM8&amp;tr=udp%3A%2F%2Ftracker.openbittorrent.com%3A80&amp;tr=udp%3A%2F%2Fopen.demonii.com%3A1337&amp;tr=udp%3A%2F%2Ftracker.coppersurfer.tk%3A6969&amp;tr=udp%3A%2F%2Fexodus.desync.com%3A6969","seeders":0,"leechers":0,"uploader":"TvTeam","files":6,"time":1300238435,"description":". \n  &lt;a href=&quot;\nhttp://www.torrenting.com/&quot; rel=&quot;nofollow&quot; target=&quot;_NEW&quot;&gt;\nhttp://www.torrenting.com/&lt;/a&gt;        :     Greatest Movie Tracker on The Net!!!\n &lt;a href=&quot;\nhttp://www.Torrenting.com&quot; rel=&quot;nofollow&quot; target=&quot;_NEW&quot;&gt;\nhttp://www.Torrenting.com&lt;/a&gt;          :     Once &amp; For all ;)\n\n\n               www . Torrenting . Com \n\n(((((((((((((= Enjoy No RAR releases =))))))))))))))))))))\n\n\n...................................NFO:....................................\n\n.[img]http://img823.imageshack.us/img823/7254/vanishingonseventhstree.jpg[/img]\n\n[color=blue][size=5][b]Vanishing On 7th Street 2010 R5 DVDRip XVID AC3 HQ Hive-CM8[/b][/size][/color]\n\n\n[b]Thx Hive\n\nCM8 Doing It Right The First Time :D\n\nSources:\n\nVideo: Russian DVD-5\nIscheznovenie.na.7-j.ulitze.2010.D.DVD.ELEKTRI4KA\n\nAudio:\nInks 5.1 Audio \nthx, perfect audio. saved me lots of time making a similar one.\n:)))\n\nEncode:\nwell movie is dark throughout, added some brightness,contrast,rgb colours,chroma and sharpness\n\nVideo: 720x304 @bitrate 2000 2pass\nAudio: English 5.1 @448\nSample: yes included[/b]\n\n\n[url]http://www.imdb.com/title/tt1452628/[/url]\n\n\nGeneral\nComplete name                    : Vanishing.on.7th.Street.2010.R5.DVDRip.XVID.AC3.HQ.Hive-CM8.avi\nFormat                           : AVI\nFormat/Info                      : Audio Video Interleave\nFile size                        : 1.50 GiB\nDuration                         : 1h 27mn\nOverall bit rate                 : 2 457 Kbps\nWriting application              : Nandub v1.0rc2\nWriting library                  : Nandub build 1853/release\n\nVideo\nID                               : 0\nFormat                           : MPEG-4 Visual\nFormat profile                   : Advanced Simple@L5\nFormat settings, BVOP            : Yes\nFormat settings, QPel            : Yes\nFormat settings, GMC             : No warppoints\nFormat settings, Matrix          : Default (H.263)\nMuxing mode                      : Packed bitstream\nCodec ID                         : XVID\nCodec ID/Hint                    : XviD\nDuration                         : 1h 27mn\nBit rate                         : 2 000 Kbps\nWidth                            : 720 pixels\nHeight                           : 304 pixels\nDisplay aspect ratio             : 2.35:1\nFrame rate                       : 25.000 fps\nColor space                      : YUV\nChroma subsampling               : 4:2:0\nBit depth                        : 8 bits\nScan type                        : Progressive\nBits/(Pixel*Frame)               : 0.365\nStream size                      : 1.22 GiB (81%)\nWriting library                  : XviD 1.2.1 (UTC 2008-12-04)\n\nAudio\nID                               : 1\nFormat                           : AC-3\nFormat/Info                      : Audio Coding 3\nMode extension                   : CM (complete main)\nCodec ID                         : 2000\nDuration                         : 1h 27mn\nBit rate mode                    : Constant\nBit rate                         : 448 Kbps\nChannel(s)                       : 6 channels\nChannel positions                : Front: L C R, Side: L R, LFE\nSampling rate                    : 48.0 KHz\nBit depth                        : 16 bits\nStream size                      : 281 MiB (18%)\nAlignment                        : Split accross interleaves\nInterleave, duration             : 40 ms (1.00 video frame)\nInterleave, preload duration     : 500 ms\n\n\n\n\nHayden Christensen ... \tLuke\nJohn Leguizamo\t... \tPaul\nThandie Newton\t... \tRosemary\nJacob Latimore\t... \tJames\nTaylor Groothuis ... \tBriana\nJordan Trovillion ... \tConcession Girl\nArthur Cartwright ... \tSecurity Guard\n\n\nWhen a massive power outage plunges the city of Detroit into total darkness, \na disparate group of individuals find themselves alone. The entire city's \npopulation has vanished into thin air, leaving behind heaps of empty clothing, \nabandoned cars and lengthening shadows.\n\n\n\n[img]http://img822.imageshack.us/img822/2513/vavas.png[/img]\n[img]http://img847.imageshack.us/img847/9006/vavava.png[/img]\n[img]http://img43.imageshack.us/img43/310/vavavavavavava.png[/img]\n[img]http://img684.imageshack.us/img684/4489/97148963.png[/img]\n[img]http://img545.imageshack.us/img545/3033/vavavavad.png[/img]\n[img]http://img6.imageshack.us/img6/1204/vavavavava.png[/img]\n[img]http://img859.imageshack.us/img859/9833/vavavavavava.png[/img]\n\n\n\n\nGreetz\n\niNK,LUSi,,MAGNET,CLASSiFiED,THC,LEGi0N,T0XiC,IMAGiNE,ViSiON,WBZ,FLAWL3SS,NOVA\nVik,Rapeseed,D2U,SAFC,goldadvance,MEMORY100,KaN1vE,Unevano,Pinnz,Wayne,Mr Hive\nand all P2P groups \nGreat Work Guys :D\n\n&lt;a class=&quot;__cf_email__&quot; href=&quot;/cdn-cgi/l/email-protection&quot; data-cfemail=&quot;7a3937423a120f0912171b131654191517&quot;&gt;[email&amp;#160;protected]&lt;/a&gt;&lt;script cf-hash='f9e31' type=&quot;text/javascript&quot;&gt;\n/* &lt;![CDATA[ */!function(){try{var t=&quot;currentScript&quot;in document?document.currentScript:function(){for(var t=document.getElementsByTagName(&quot;script&quot;),e=t.length;e--;)if(t[e].getAttribute(&quot;cf-hash&quot;))return t[e]}();if(t&amp;&amp;t.previousSibling){var e,r,n,i,c=t.previousSibling,a=c.getAttribute(&quot;data-cfemail&quot;);if(a){for(e=&quot;&quot;,r=parseInt(a.substr(0,2),16),n=2;a.length-n;n+=2)i=parseInt(a.substr(n,2),16)^r,e+=String.fromCharCode(i);e=document.createTextNode(e),c.parentNode.replaceChild(e,c)}}}catch(u){}}();/* ]]&gt; */&lt;/script&gt;","torrent":{"xt":"urn:btih:1318938eb2d34b8ecbb8ca60e145faf21a65adc1","amp;dn":"Vanishing.on.7th.Street.2010.R5.DVDRip.XVID.AC3.HQ.Hive-CM8","amp;tr":["udp%3A%2F%2Ftracker.openbittorrent.com%3A80","udp%3A%2F%2Fopen.demonii.com%3A1337","udp%3A%2F%2Ftracker.coppersurfer.tk%3A6969","udp%3A%2F%2Fexodus.desync.com%3A6969"],"infoHash":"1318938eb2d34b8ecbb8ca60e145faf21a65adc1","infoHashBuffer":{"type":"Buffer","data":[19,24,147,142,178,211,75,142,203,184,202,96,225,69,250,242,26,101,173,193]},"announce":[],"urlList":[]}}